<?xml version="1.0" encoding="UTF-8"?>
<svg version="1.1" xmlns="http://www.w3.org/2000/svg" width="256" height="256">
<path d="M0 0 C84.48 0 168.96 0 256 0 C256 84.48 256 168.96 256 256 C171.52 256 87.04 256 0 256 C0 171.52 0 87.04 0 0 Z " fill="#00D4F8" transform="translate(0,0)"/>
<path d="M0 0 C84.48 0 168.96 0 256 0 C256 84.48 256 168.96 256 256 C171.52 256 87.04 256 0 256 C0 171.52 0 87.04 0 0 Z M62.3125 28.5625 C53.302184 39.53686241 52.99772356 53.45141279 54 67 C54.95472474 74.06825118 56.4297726 81.04568834 58 88 C57.35063477 88.13760742 56.70126953 88.27521484 56.03222656 88.41699219 C37.25542504 92.58527008 20.01100391 102.91951045 9.0625 118.8125 C6.85551718 125.43344845 7.06437646 131.74249027 9.9375 138.125 C17.28283679 151.05606644 30.22831223 158.05274847 43.375 163.9375 C44.35545288 164.37956787 44.35545288 164.37956787 45.35571289 164.83056641 C49.62846813 166.6615141 53.42364125 167.53290395 58 168 C57.566875 169.36125 57.566875 169.36125 57.125 170.75 C52.38419344 187.85076652 51.44464966 206.62060641 59 223 C62.14326814 227.87600366 65.73622026 231.47900436 71 234 C73.77349622 234.34668703 76.23177368 234.52453055 79 234.5 C79.75112061 234.49427979 80.50224121 234.48855957 81.27612305 234.48266602 C98.65031537 233.93447361 115.27741665 222.14536504 127 210 C130.29544798 211.39855597 132.86407142 213.41918836 135.61767578 215.68139648 C147.70631553 225.61195037 162.40001382 236.10529934 178.75390625 235.3203125 C184.68726773 234.47416356 190.15449992 231.6146001 194 227 C200.38718419 216.37459078 201.18110568 207.60588473 201.1875 195.4375 C201.19974609 194.23802734 201.21199219 193.03855469 201.22460938 191.80273438 C201.23774416 183.6898183 200.47134855 175.97695994 199 168 C200.23234375 167.57589844 201.4646875 167.15179688 202.734375 166.71484375 C212.45601607 163.2991852 221.41786982 159.79521689 230 154 C230.81855469 153.45730469 231.63710937 152.91460937 232.48046875 152.35546875 C239.64380595 147.23194281 246.22751865 139.86240674 248 131 C249.05600306 123.15540581 245.31022349 117.0333899 240.69140625 110.96875 C231.16193349 99.88200035 214.764133 92.89983768 201 89 C200.01 89 199.02 89 198 89 C198.2165625 87.99066406 198.433125 86.98132813 198.65625 85.94140625 C202.30157248 67.60459147 205.05291272 45.82243369 194.25 29.5 C189.921683 24.38277793 186.09187513 22.38479669 179.421875 21.5546875 C161.18704205 20.4033682 147.26928934 30.75584808 133.9375 42.125 C132.65166016 43.27355469 132.65166016 43.27355469 131.33984375 44.4453125 C129 46 129 46 126.93359375 45.9609375 C124.56239432 44.78252324 123.01746255 43.35564422 121.125 41.5 C108.47470739 29.91083391 93.55636094 21.56173837 76.15625 21.796875 C70.0598669 22.18921649 66.56619444 24.12970263 62.3125 28.5625 Z " fill="#212222" transform="translate(0,0)"/>
<path d="M0 0 C16.67344508 0.15468516 16.67344508 0.15468516 21.78588867 4.98413086 C24.59468106 8.88638149 26.20767876 13.12939112 27.61303711 17.70385742 C29.08154087 22.02007858 31.5096943 25.75381459 33.82495117 29.65991211 C35.80458775 33.10474689 37.47787286 36.10086413 37.59057617 40.16381836 C35.92898425 45.07033075 33.4764543 49.4617002 30.94995117 53.97241211 C30.13457886 55.43650513 30.13457886 55.43650513 29.30273438 56.93017578 C27.72151001 59.74511552 26.12146802 62.54828481 24.51245117 65.34741211 C24.10446289 66.06590332 23.69647461 66.78439453 23.27612305 67.5246582 C22.28077578 69.25405182 21.24251368 70.95856503 20.19995117 72.65991211 C19.64694336 73.56354492 19.09393555 74.46717773 18.52416992 75.39819336 C13.32393824 80.43686445 2.5784964 78.53349413 -4.35791016 78.53271484 C-6.54780276 78.53490986 -8.73719758 78.55313329 -10.92700195 78.57202148 C-12.33390129 78.57495471 -13.740803 78.57693998 -15.14770508 78.57788086 C-17.0446814 78.58404419 -17.0446814 78.58404419 -18.97998047 78.59033203 C-23.32810687 78.28919848 -27.00641899 77.88410912 -30.12744141 74.64599609 C-30.54147217 73.96867432 -30.95550293 73.29135254 -31.38208008 72.59350586 C-31.85887207 71.8293335 -32.33566406 71.06516113 -32.8269043 70.27783203 C-33.31304199 69.45516846 -33.79917969 68.63250488 -34.30004883 67.78491211 C-34.81196777 66.940979 -35.32388672 66.0970459 -35.85131836 65.22753906 C-37.42050918 62.61409202 -38.95698357 59.98363208 -40.48754883 57.34741211 C-40.96853027 56.5346582 -41.44951172 55.7219043 -41.94506836 54.88452148 C-43.278504 52.61576059 -44.57727292 50.33123424 -45.86254883 48.03491211 C-46.2619165 47.34905029 -46.66128418 46.66318848 -47.07275391 45.95654297 C-48.71842939 42.90363546 -49.58072729 40.93941664 -49.03442383 37.46850586 C-46.90109398 33.16413579 -44.69860035 28.92058523 -42.36254883 24.72241211 C-41.8747998 23.84029053 -41.38705078 22.95816895 -40.88452148 22.04931641 C-29.4435087 1.58253249 -23.09869474 0.2202801 0 0 Z " fill="#212425" transform="translate(133.487548828125,88.652587890625)"/>
<path d="M0 0 C0.16653076 0.53149658 0.33306152 1.06299316 0.50463867 1.6105957 C1.86770712 5.84101367 3.35839507 9.9582517 5.11328125 14.04296875 C5.47357422 14.88923828 5.83386719 15.73550781 6.20507812 16.60742188 C6.95066379 18.34449183 7.70875068 20.07624315 8.47851562 21.80273438 C11.14744817 28.15664117 11.14744817 28.15664117 10.484375 31.94921875 C9.99453125 32.95597656 9.5046875 33.96273437 9 35 C8.35193322 36.67534185 7.71648442 38.3555892 7.08984375 40.0390625 C6.00778258 42.85282008 4.92198349 45.66509575 3.83398438 48.4765625 C3.48529297 49.3840625 3.13660156 50.2915625 2.77734375 51.2265625 C2.46015381 52.04721191 2.14296387 52.86786133 1.81616211 53.71337891 C1.0728282 55.79595904 0.49229241 57.84602757 0 60 C-6.50405134 59.54043994 -11.47701531 58.36922719 -17.3125 55.5 C-18.04307617 55.14687744 -18.77365234 54.79375488 -19.52636719 54.42993164 C-29.08589008 49.65121793 -39.75536664 43.55243032 -43.71875 33.10546875 C-44.71554525 28.89400883 -43.93912862 26.1929648 -41.75 22.5 C-33.34939642 11.25403069 -14.27526188 0 0 0 Z " fill="#212424" transform="translate(62,98)"/>
<path d="M0 0 C7.15519312 7.41944742 7.11841108 17.42525304 7.04052734 27.10620117 C6.81238041 35.33494578 5.52456048 43.1935163 3.625 51.1875 C-1.86655115 51.35523662 -6.91544316 50.72921284 -12.3125 49.75 C-13.84215989 49.47883892 -15.37210749 49.2092956 -16.90234375 48.94140625 C-17.64589111 48.80637695 -18.38943848 48.67134766 -19.15551758 48.53222656 C-21.36625751 48.15610166 -21.36625751 48.15610166 -23.5847168 48.03808594 C-27.13164314 47.79683751 -28.97647753 47.56845093 -31.58984375 45.0703125 C-32.44255859 43.70519531 -32.44255859 43.70519531 -33.3125 42.3125 C-36.73287884 37.1278546 -40.42309406 32.37040997 -44.39453125 27.59765625 C-46.11770201 25.50062202 -47.76718293 23.37352257 -49.375 21.1875 C-37.91608722 9.98582812 -17.03207068 -9.14685277 0 0 Z " fill="#212424" transform="translate(184.375,33.8125)"/>
<path d="M0 0 C0.89074219 0.13921875 1.78148438 0.2784375 2.69921875 0.421875 C6.13189403 0.92223983 9.56333697 1.22347716 13.01953125 1.515625 C33.09988479 3.51954372 33.09988479 3.51954372 37.9855957 9.47436523 C39.8220196 12.23549368 41.39836702 15.09534358 43 18 C44.49283411 19.77149648 46.03114775 21.50631338 47.625 23.1875 C51 26.7826087 51 26.7826087 51 29 C51.66 29 52.32 29 53 29 C51.43998186 33.27004965 48.22493112 35.61155002 44.75 38.3125 C44.13390869 38.79452881 43.51781738 39.27655762 42.88305664 39.77319336 C36.68056288 44.47872323 30.12282226 47.8797854 23 51 C22.16597656 51.38285156 21.33195312 51.76570313 20.47265625 52.16015625 C14.90364181 54.05168564 8.38302205 54.04257215 3 51.6875 C-2.7929493 43.90322437 -3.63443182 35.04225091 -3.4375 25.625 C-3.4271875 24.53388916 -3.416875 23.44277832 -3.40625 22.31860352 C-3.24881358 14.55270461 -2.47366383 7.4062673 0 0 Z " fill="#212323" transform="translate(68,171)"/>
<path d="M0 0 C2.34372633 7.96866951 3.20758048 14.8531934 3.25 23.125 C3.270625 24.10726562 3.29125 25.08953125 3.3125 26.1015625 C3.35527619 34.22903838 2.72834706 43.06749446 -2.5625 49.625 C-6.60958457 53.56831317 -9.86641943 53.58684398 -15.38671875 53.52734375 C-29.14780364 51.5189692 -42.643747 40.71268168 -52 31 C-49.96870776 26.24466267 -46.52409562 22.41309463 -43.28710938 18.44042969 C-41.09669158 15.73553152 -39.10701779 13.18890065 -37.38671875 10.15234375 C-35.77749649 7.36453617 -34.6771383 5.8239365 -32 4 C-27.30931926 2.77146137 -22.51645051 2.53714714 -17.69140625 2.31640625 C-11.64391621 2.03784615 -6.0408685 -0.37755428 0 0 Z " fill="#212323" transform="translate(188,171)"/>
<path d="M0 0 C13.07175127 3.64002975 25.41086224 11.42855438 35 21 C35.82714844 22.93164062 35.82714844 22.93164062 36 25 C34.74658203 26.61645508 34.74658203 26.61645508 32.8828125 28.20703125 C30.15743398 30.72736772 28.25900736 32.99758148 26.4921875 36.26171875 C22.93669868 42.47106196 19.64528088 47.74246228 12.6171875 50.16699219 C3.23544287 52.2017905 -6.40553249 53 -16 53 C-18.33719687 43.53991744 -19.36129729 34.36434212 -19.5 24.625 C-19.53029297 23.62791016 -19.56058594 22.63082031 -19.59179688 21.60351562 C-19.59651473 14.50313839 -18.14625668 8.85638052 -14 3 C-9.47479509 -0.88587398 -5.78053014 -0.81580063 0 0 Z " fill="#212323" transform="translate(84,32)"/>
<path d="M0 0 C15.08762495 2.60705284 30.6850827 10.68079054 41 22 C43.34389214 25.85226437 43.89311638 29.58269464 43 34 C38.33447918 43.31330201 29.05820467 48.67275996 20.125 53.25 C19.48965332 53.57935547 18.85430664 53.90871094 18.19970703 54.24804688 C12.67539193 56.96505978 6.96279717 58.52543307 1 60 C-0.5540382 56.24870219 -2.10209623 52.49499757 -3.64477539 48.73901367 C-4.1698495 47.46295582 -4.69652193 46.18755439 -5.22485352 44.9128418 C-5.98618831 43.07516187 -6.74120938 41.23487028 -7.49609375 39.39453125 C-7.95169678 38.28956299 -8.4072998 37.18459473 -8.87670898 36.04614258 C-11.40460336 29.1909941 -11.40460336 29.1909941 -9.9609375 24.94140625 C-9.17589844 23.26884766 -9.17589844 23.26884766 -8.375 21.5625 C-7.81399848 20.33371823 -7.25681393 19.10318787 -6.703125 17.87109375 C-6.41888672 17.23929199 -6.13464844 16.60749023 -5.84179688 15.95654297 C-3.60364208 10.75452077 -1.83841977 5.35256729 0 0 Z " fill="#212323" transform="translate(194,98)"/>
<path d="M0 0 C4.63612539 2.75024388 8.49506146 7.27803827 10.19921875 12.421875 C11.26066341 18.49379499 11.66531266 24.43323891 8.4375 29.875 C5.07507923 34.52333239 0.92634694 38.31261561 -4.4375 40.5 C-10.94507327 41.40600752 -16.83628161 41.46892097 -22.5 37.875 C-26.96928638 34.40617773 -29.63374634 30.91126099 -31.4375 25.5 C-32.76097331 12.31552534 -32.76097331 12.31552534 -28.75 6.875 C-21.17627701 -1.46681282 -10.87095104 -4.78237575 0 0 Z " fill="#00D6FC" transform="translate(138.4375,108.5)"/>
<path d="M0 0 C3.96257555 3.4729209 6.19645799 7.50311338 8.6875 12.0625 C9.09033203 12.78244141 9.49316406 13.50238281 9.90820312 14.24414062 C11.52607853 17.16282037 12.94096631 19.82289894 14 23 C6.70968976 23.2494783 0.09326321 22.72330907 -7 21 C-5.62820313 13.51747162 -3.07836721 6.94395046 0 0 Z " fill="#202A2B" transform="translate(78,141)"/>
<path d="M0 0 C0.66 0 1.32 0 2 0 C3.17314026 2.76825188 4.33870215 5.53928486 5.5 8.3125 C5.83386719 9.09818359 6.16773438 9.88386719 6.51171875 10.69335938 C6.82753906 11.45068359 7.14335937 12.20800781 7.46875 12.98828125 C7.90864258 14.03302612 7.90864258 14.03302612 8.35742188 15.09887695 C9 17 9 17 9 20 C6.6263603 20.50734284 4.25142575 21.00602386 1.875 21.5 C0.87726563 21.71462891 0.87726563 21.71462891 -0.140625 21.93359375 C-4.16056422 22.7612283 -7.89904899 23.15330658 -12 23 C-10.2010497 17.92365174 -7.50973545 13.36286389 -4.875 8.6875 C-4.40707031 7.85154297 -3.93914062 7.01558594 -3.45703125 6.15429688 C-2.3073741 4.10133767 -1.15496198 2.04997798 0 0 Z " fill="#212728" transform="translate(176,141)"/>
<path d="M0 0 C-1.7346157 4.9278855 -4.35619901 9.27064575 -7 13.75 C-7.45117188 14.52988281 -7.90234375 15.30976562 -8.3671875 16.11328125 C-8.80289063 16.85449219 -9.23859375 17.59570312 -9.6875 18.359375 C-10.08324219 19.03452148 -10.47898437 19.70966797 -10.88671875 20.40527344 C-12 22 -12 22 -14 23 C-15.1721449 20.04380781 -16.33677476 17.08471211 -17.5 14.125 C-17.83386719 13.28324219 -18.16773437 12.44148438 -18.51171875 11.57421875 C-18.98544922 10.36572266 -18.98544922 10.36572266 -19.46875 9.1328125 C-19.76201172 8.38918457 -20.05527344 7.64555664 -20.35742188 6.87939453 C-21 5 -21 5 -21 3 C-13.90215087 1.18225815 -7.34918342 -0.43230491 0 0 Z " fill="#212829" transform="translate(92,92)"/>
<path d="M0 0 C8.58 0 17.16 0 26 0 C24.25763905 3.48472189 22.52240682 6.09431591 20.125 9.125 C19.44695312 9.99382812 18.76890625 10.86265625 18.0703125 11.7578125 C16.10195535 13.88958043 14.66436924 14.93664187 12 16 C10.56041153 14.41856529 9.12341355 12.83477221 7.6875 11.25 C6.88699219 10.36828125 6.08648437 9.4865625 5.26171875 8.578125 C0 2.58031088 0 2.58031088 0 0 Z " fill="#212324" transform="translate(115,177)"/>
<path d="M0 0 C6.84817102 0.48641215 13.33042073 1.35993952 20 3 C18.63125844 9.95776959 16.5466871 16.38603107 14 23 C13.34 23 12.68 23 12 23 C9.99304709 19.54565686 7.99563221 16.0858937 6 12.625 C5.42765625 11.64015625 4.8553125 10.6553125 4.265625 9.640625 C3.72421875 8.69960937 3.1828125 7.75859375 2.625 6.7890625 C2.12226563 5.91975098 1.61953125 5.05043945 1.1015625 4.15478516 C0 2 0 2 0 0 Z " fill="#212526" transform="translate(164,92)"/>
<path d="M0 0 C4.37886366 1.54487947 6.59145754 4.97269485 9.25 8.5625 C9.70890625 9.16513672 10.1678125 9.76777344 10.640625 10.38867188 C14 14.84284319 14 14.84284319 14 16 C5.42 16 -3.16 16 -12 16 C-10.11182667 12.22365334 -8.12205606 9.53999999 -5.4375 6.3125 C-4.63183594 5.33925781 -3.82617188 4.36601563 -2.99609375 3.36328125 C-1 1 -1 1 0 0 Z " fill="#212324" transform="translate(127,63)"/>
<path d="M0 0 C0 3 0 3 -1.53125 4.60546875 C-2.1809375 5.12753906 -2.830625 5.64960937 -3.5 6.1875 C-4.1496875 6.71730469 -4.799375 7.24710938 -5.46875 7.79296875 C-5.9740625 8.19128906 -6.479375 8.58960938 -7 9 C-7 6 -7 6 -5.46875 4.39453125 C-4.49421875 3.61142578 -4.49421875 3.61142578 -3.5 2.8125 C-2.8503125 2.28269531 -2.200625 1.75289062 -1.53125 1.20703125 C-1.0259375 0.80871094 -0.520625 0.41039062 0 0 Z " fill="#202A2C" transform="translate(145,46)"/>
<path d="M0 0 C0.66 0.33 1.32 0.66 2 1 C0.35 2.98 -1.3 4.96 -3 7 C-3.66 6.67 -4.32 6.34 -5 6 C-3.35 4.02 -1.7 2.04 0 0 Z " fill="#1F3033" transform="translate(127,63)"/>
</svg>
